<?xml version="1.0" encoding="UTF-8" standalone="no"?><!DOCTYPE svg PUBLIC "-//W3C//DTD SVG 1.1//EN" "http://www.w3.org/Graphics/SVG/1.1/DTD/svg11.dtd"><svg width="100%" height="100%" viewBox="0 0 349 220" version="1.1" xmlns="http://www.w3.org/2000/svg" xmlns:xlink="http://www.w3.org/1999/xlink" xml:space="preserve" xmlns:serif="http://www.serif.com/" style="fill-rule:evenodd;clip-rule:evenodd;stroke-linejoin:round;stroke-miterlimit:2;"><g><path d="M23.152,219.003l-23.152,-0l0,-219.003l19.71,0l94.797,161.124l5.006,30.034l-11.263,0l-85.098,-143.916l-0,171.761Z" style="fill-rule:nonzero;"/><path d="M244.27,153.449l-0,-23.152l61.716,0l0,23.321l-61.716,-0.169Z" style="fill-rule:nonzero;"/><path d="M317.099,153.444l-112.428,-0.004l10.395,-23.112l83.098,0.199l18.935,22.917Z"/><path d="M23.152,47.242l-23.152,-47.242l19.71,0l94.797,161.124l35.139,57.877l-24.933,-0l-101.561,-171.759Z" style="fill-rule:nonzero;"/><path d="M149.596,219.003l-24.95,-0l99.803,-219.003l23.863,0l-11.974,25.029l-28.284,63.306l-58.458,130.668Zm110.655,-192.7l88.091,192.7l-25.342,-0l-74.463,-166.669l11.714,-26.031Z"/></g></svg>